<svg xmlns:dc="http://purl.org/dc/elements/1.1/" xmlns:cc="http://creativecommons.org/ns#" xmlns:rdf="http://www.w3.org/1999/02/22-rdf-syntax-ns#" xmlns:svg="http://www.w3.org/2000/svg" xmlns="http://www.w3.org/2000/svg" viewBox="0 0 20 20" shape-rendering="crispEdges"><metadata><rdf:RDF><cc:Work><dc:format>image/svg+xml</dc:format><dc:type rdf:resource="http://purl.org/dc/dcmitype/StillImage"/><dc:title>Male / 8biticon</dc:title><dc:creator><cc:Agent><dc:title>Plastic Jam</dc:title></cc:Agent></dc:creator><dc:source>https://github.com/dicebear/dicebear</dc:source><cc:license rdf:resource="https://github.com/dicebear/dicebear/blob/v4/packages/avatars-male-sprites/LICENSE"/><dc:contributor><cc:Agent><dc:title>Florian Körner</dc:title></cc:Agent></dc:contributor></cc:Work></rdf:RDF></metadata><mask id="avatarsRadiusMask"><rect width="20" height="20" rx="0" ry="0" x="0" y="0" fill="#fff"/></mask><g mask="url(#avatarsRadiusMask)"><path d="M8 15v1H4v1H3v3h14v-3h-1v-1h-4v-1h3v-1h1v-1h1v-3h1V7h-1V4h-1V3h-1V2H5v1H4v1H3v3H2v3h1v3h1v1h1v1h3z" fill="#A26D3D"/><path d="M5 15v-1H4v-1H3v-3H2V7h1V4h1V3h1V2h10v1h1v1h1v3h1v3h-1v3h-1v1h-1v1H5z" fill="#FFF" fill-opacity=".1"/><path d="M5 7h3v2H5V7zm7 0h3v2h-3V7z" fill="#FFF"/><path d="M6 8h1v1H6V8zm7 1V8h1v1h-1z" fill="#76778b"/><path d="M8 4v1H7v1H5V5h2V4h1zm4 0h1v1h2v1h-2V5h-1V4z" fill-rule="evenodd" fill="#000000"/><path d="M3 10v3h1v1h1v1h10v-1h1v-1h1v-3h-3v1H6v-1H3z" id="Path" fill="#090806" fill-opacity="0.75"/><path d="M8 13v1h4v-1h1v-1h-1v1H8z" fill="#dbac98"/><path d="M3 20v-3h1v-1h4v-1h4v1h4v1h1v3H3z" fill="#5bc0de"/><path d="M3 20v-3h1v-1h12v1h1v3H3z" fill="#FFF" fill-opacity=".2"/><path d="M12 19v-1h3v1h-3z" fill="#FFF" fill-opacity=".2"/><path d="M3 8h1V5h12v3h1V4h-1V3h-1V2H5v1H4v1H3v4z" fill="#090806"/></g></svg>